<svg width="41" height="24" viewBox="0 0 41 24" fill="none" xmlns="http://www.w3.org/2000/svg">
<path d="M39.875 0.46875L40.5781 1.5C40.0156 3.78125 39.2812 6.21875 38.375 8.8125C37.4688 11.375 36.5 13.9531 35.4688 16.5469C34.4375 19.1406 33.3906 21.6094 32.3281 23.9531H22.0625C22.6562 21.4219 23.25 18.7656 23.8438 15.9844C24.4375 13.2031 24.9844 10.4688 25.4844 7.78125C26.0156 5.09375 26.4375 2.65625 26.75 0.46875H39.875ZM18.0312 0.46875L18.6875 1.5C18.125 3.78125 17.3906 6.21875 16.4844 8.8125C15.6094 11.375 14.6406 13.9531 13.5781 16.5469C12.5469 19.1406 11.5 21.6094 10.4375 23.9531H0.171875C0.609375 22.0781 1.04688 20.1094 1.48438 18.0469C1.95312 15.9844 2.39062 13.9219 2.79688 11.8594C3.23438 9.79688 3.625 7.79688 3.96875 5.85938C4.3125 3.92188 4.60938 2.125 4.85938 0.46875H18.0312Z" fill="#B0855B"/>
</svg>
